<svg id="Layer_1" data-name="Layer 1" xmlns="http://www.w3.org/2000/svg" viewBox="0 0 346.7 245.81"><defs><style>.cls-1{fill:#fff;}</style></defs><path class="cls-1" d="M75.15,154.09H48.92a8.48,8.48,0,0,1-7.33-4.24L28.47,127.14a8.53,8.53,0,0,1,0-8.47L41.59,96a8.48,8.48,0,0,1,7.33-4.24H75.15A8.49,8.49,0,0,1,82.49,96L95.6,118.67a8.48,8.48,0,0,1,0,8.47L82.49,149.85A8.49,8.49,0,0,1,75.15,154.09ZM48.92,94.49A5.7,5.7,0,0,0,44,97.34L30.87,120.06a5.72,5.72,0,0,0,0,5.69L44,148.47a5.72,5.72,0,0,0,4.93,2.85H75.15a5.74,5.74,0,0,0,4.94-2.85L93.2,125.75a5.72,5.72,0,0,0,0-5.69L80.09,97.34a5.72,5.72,0,0,0-4.94-2.85Z"/><path class="cls-1" d="M71.19,120.11v-8.32H65.61v8.32H58.48v-8.32H52.9v8.32H42.45l8.82-15.28a3.37,3.37,0,0,1,2.93-1.69H69.89a3.38,3.38,0,0,1,2.92,1.69l8.82,15.28Z"/><path class="cls-1" d="M65.61,125.69v17H54.2A3.39,3.39,0,0,1,51.27,141l-8.82-15.27v0H52.9V134h5.58v-8.33Z"/><path class="cls-1" d="M81.63,125.69v0L72.81,141a3.37,3.37,0,0,1-1.62,1.43V125.69Z"/><path class="cls-1" d="M113.91,128.1V105.45h3.65v9.6h13.31v-9.6h3.62V128.1h-3.62v-9.77H117.56v9.77Z"/><path class="cls-1" d="M136.56,128.1l10.1-22.65h5.13L161.9,128.1h-4.12l-2.61-5.89h-12l-2.6,5.89Zm8.1-9.16h9.06l-3.07-6.9-1.32-3.21h-.27L147.74,112Z"/><path class="cls-1" d="M163.22,120.69v-.2h3.65V121c0,2.71,1.59,4.06,6.56,4.06,4.32,0,5.84-1,5.84-3.08,0-2-1.15-2.7-4-3.24l-5.54-.91c-3.82-.68-6.52-2.44-6.52-6.15,0-3.28,2.7-6.59,9.73-6.59,6.62,0,9.63,3.31,9.63,7.74v.2h-3.62v-.44c0-2.77-1.65-4.16-6.35-4.16-4.12,0-5.74,1-5.74,3s1.15,2.61,3.81,3.18l5.51.95c4.53.81,6.76,2.87,6.76,6.18s-2.8,6.62-9.49,6.62S163.22,125.46,163.22,120.69Z"/><path class="cls-1" d="M185.86,128.1V105.45h3.65v9.6h13.32v-9.6h3.61V128.1h-3.61v-9.77H189.51v9.77Z"/><path class="cls-1" d="M208.78,128.1l10.34-22.65h2.06l10.34,22.65H229.9l-3.35-7.2H213.71l-3.31,7.2Zm5.57-8.59h11.56l-4.53-9.8-1.21-2.77H220l-1.15,2.77Z"/><path class="cls-1" d="M234.4,128.1V105.45h1.52v21.26h14.66v1.39Z"/><path class="cls-1" d="M253.83,128.1V105.45h9.93c4.8,0,8.25,2.74,8.25,7.47s-3.45,7.47-8.25,7.47h-8.41v7.71Zm1.52-21.26V119h8.35c4.39,0,6.79-1.93,6.79-6.09s-2.4-6.08-6.79-6.08Z"/><path class="cls-1" d="M275.26,128.1V105.45h1.52V116h15.47V105.45h1.49V128.1h-1.49V117.35H276.78V128.1Z"/><path class="cls-1" d="M296.62,128.1,307,105.45H309l10.34,22.65h-1.62l-3.35-7.2H301.55l-3.31,7.2Zm5.57-8.59h11.56l-4.53-9.8L308,106.94h-.13l-1.15,2.77Z"/><path class="cls-1" d="M160.06,144.88c0-3.35,2.26-5.53,5.69-5.53,3.05,0,5.17,1.54,5.17,4v.12H169v-.12c0-1.54-1.08-2.38-3.3-2.38-2.58,0-3.82,1.2-3.82,3.88s1.22,3.87,3.74,3.87,3.57-.71,3.57-2.52v-.15h-4v-1.31h5.69v5.48h-1.57v-2.32h-.12c-.45,1.57-1.81,2.48-3.91,2.48C162.16,150.41,160.06,148.23,160.06,144.88Z"/><path class="cls-1" d="M182,150.25V139.51h1.73v9.19h6.63v1.55Z"/><path class="cls-1" d="M200.76,144.88a5.61,5.61,0,1,1,5.6,5.53A5.24,5.24,0,0,1,200.76,144.88Zm9.38,0c0-2.68-1.23-3.88-3.78-3.88s-3.77,1.2-3.77,3.88,1.22,3.87,3.77,3.87S210.14,147.56,210.14,144.88Z"/><path class="cls-1" d="M222.79,150.25V139.51h6c2,0,3.29,1,3.29,2.65a2.31,2.31,0,0,1-2.34,2.4v.11c1.82.21,2.72,1.21,2.72,2.62,0,1.84-1.23,3-3.44,3ZM224.5,144h4.06c1.2,0,1.81-.47,1.81-1.48s-.56-1.47-1.76-1.47H224.5Zm0,4.68h4.33c1.29,0,1.91-.48,1.91-1.65s-.64-1.61-1.91-1.61H224.5Z"/><path class="cls-1" d="M242.41,150.25l4.79-10.74h2.44l4.79,10.74h-2l-1.24-2.79h-5.67l-1.24,2.79Zm3.85-4.34h4.29l-1.45-3.27-.63-1.53h-.13l-.62,1.53Z"/><path class="cls-1" d="M264.85,150.25V139.51h1.73v9.19h6.63v1.55Z"/></svg>